<svg  xmlns="http://www.w3.org/2000/svg" viewBox="0 0 48.5 48.5">
<path  d="M1620.22,273.06a9.93,9.93,0,0,0-9.93,9.93c0,5.49,9.93,20,9.93,20s9.93-14.47,9.93-20A9.92,9.92,0,0,0,1620.22,273.06Zm0,14.16a4.67,4.67,0,1,1,4.67-4.67A4.67,4.67,0,0,1,1620.22,287.22Z" transform="translate(-1595.38 -263.05)"/>
<path  d="M1619.63,311.55a24.25,24.25,0,1,1,24.25-24.25A24.28,24.28,0,0,1,1619.63,311.55Zm0-47.5a23.25,23.25,0,1,0,23.25,23.25A23.28,23.28,0,0,0,1619.63,264.05Z" transform="translate(-1595.38 -263.05)"/>
</svg>