<svg  xmlns="http://www.w3.org/2000/svg" viewBox="0 0 48.58 48.58">
<path  d="M1645.2,347.25A24.29,24.29,0,1,1,1669.49,323,24.31,24.31,0,0,1,1645.2,347.25Zm0-47.57A23.29,23.29,0,1,0,1668.49,323,23.31,23.31,0,0,0,1645.2,299.68Z" transform="translate(-1620.91 -298.68)"/>
<path  d="M1639.89,308.63a2.14,2.14,0,0,1,1.28,1.72c.35,1.51.67,3,1,4.53a3.31,3.31,0,0,1,.06.7,1.4,1.4,0,0,1-1,1.46q-.71.25-1.44.48a1.18,1.18,0,0,0-.84.92,3.08,3.08,0,0,0,.08,1.8,19.38,19.38,0,0,0,5.88,8.56,13.07,13.07,0,0,0,1.8,1.24,2.16,2.16,0,0,0,1.35.24,1,1,0,0,0,.81-.47l.81-1.16a1.5,1.5,0,0,1,2.07-.61,15.25,15.25,0,0,1,1.39.72c.87.47,1.73.95,2.59,1.43.22.12.44.25.65.39a2.09,2.09,0,0,1,1.1,1.59l-.08.58c-.19.43-.35.89-.58,1.3a6.07,6.07,0,0,1-4.65,3.26c-.42.06-.85,0-1.27.06l-1-.14c-.39-.12-.79-.23-1.17-.37a15.83,15.83,0,0,1-5.08-3.22,36,36,0,0,1-4.86-5.38,36.63,36.63,0,0,1-4.59-7.59,14.79,14.79,0,0,1-1.27-4.76c0-.48,0-1,0-1.46l.15-1c0-.07.06-.15.08-.22a6,6,0,0,1,4.6-4.49,12.07,12.07,0,0,1,1.6-.21Z" transform="translate(-1620.91 -298.68)"/>
</svg>